<svg id="Laag_1" data-name="Laag 1" xmlns="http://www.w3.org/2000/svg" width="69.52mm" height="23.03mm" viewBox="0 0 197.06 65.29">
  <defs>
    <style>
      .cls-1 {
        fill: #ababad;
      }

      .cls-2 {
        fill: #009ee0;
      }
    </style>
  </defs>
  <g>
    <path class="cls-1" d="M249.29,287.46l-4.78,7.76H233.66a17.53,17.53,0,0,1-6.48-1.17,15.5,15.5,0,0,1-5.13-3.23,14.79,14.79,0,0,1-3.38-4.87,15.14,15.14,0,0,1-1.23-6.12,14.46,14.46,0,0,1,1.23-6,14.09,14.09,0,0,1,3.38-4.7,14.89,14.89,0,0,1,5.13-3,19.07,19.07,0,0,1,6.48-1.06h29.87l-4.93,7.85H233.66a8.89,8.89,0,0,0-3.14.54,7.42,7.42,0,0,0-2.5,1.52,7.2,7.2,0,0,0-1.65,2.32,7.75,7.75,0,0,0,0,5.93,6.49,6.49,0,0,0,1.65,2.28,7.34,7.34,0,0,0,2.52,1.47,9.11,9.11,0,0,0,3.14.52Z" transform="translate(-198.31 -247.14)"/>
    <path class="cls-2" d="M262.81,295.22l5-7.76h9.27q1.31,0,2.28.09c-.38-.54-.82-1.23-1.31-2.05s-1-1.61-1.43-2.33l-4.83-8-12.63,20h-9.86l17.26-27.3a9.65,9.65,0,0,1,2.13-2.35,5.63,5.63,0,0,1,6.42-.07,8.82,8.82,0,0,1,2.15,2.42l16.82,27.3Z" transform="translate(-198.31 -247.14)"/>
    <path class="cls-1" d="M301.52,295.75a4.51,4.51,0,0,1-3.77-2.17L280.32,265h8.89l11.54,18.82,6-15.93a8.38,8.38,0,0,1,1-1.79,4.5,4.5,0,0,1,1.11-1,3.58,3.58,0,0,1,1.23-.48,8.45,8.45,0,0,1,1.37-.11,8.74,8.74,0,0,1,1.4.11,3.58,3.58,0,0,1,1.23.48,5,5,0,0,1,1.13,1,14.48,14.48,0,0,1,1.27,2s8.37,15.17,8.58,15.68L329.82,265H338l-7.31,26.54a5.71,5.71,0,0,1-1.83,3.13,4.4,4.4,0,0,1-2.83,1,4.31,4.31,0,0,1-2.72-.86,9.52,9.52,0,0,1-2.2-2.77l-9.75-17.18s-2.38,7.11-5.46,16.37C305.55,292.17,304.38,295.75,301.52,295.75Z" transform="translate(-198.31 -247.14)"/>
    <path class="cls-1" d="M371.47,287.46l-2.09,7.76H333.62L341.91,265h29.77l-2.15,7.85H347l-1,3.61h22.56l-1.9,6.86H344.1L343,287.46Z" transform="translate(-198.31 -247.14)"/>
  </g>
  <path class="cls-2" d="M198.31,277.35c0,17.87,7.43,26.4,14.47,30.66a32.15,32.15,0,0,0,16.91,4.41h20.57l5-8.26H230.94c-2.39-.11-23-.93-23-26.81Z" transform="translate(-198.31 -247.14)"/>
  <path class="cls-2" d="M386.88,282.21h8.48c-.56-17.34-9-26-16-30.29-7.7-4.66-17.21-4.75-18-4.78H347l-2.38,8.54H361C365.57,255.68,385.9,257.23,386.88,282.21Z" transform="translate(-198.31 -247.14)"/>
</svg>
